<svg xmlns="http://www.w3.org/2000/svg"  viewBox="0 0 64 64" width="64px" height="64px"><path fill="#85cbf8" d="M32,4C16.56,4,4,15.66,4,30A25.19,25.19,0,0,0,14.09,50v9.09a.93.93,0,0,0,1.38.82L24.36,55A30.09,30.09,0,0,0,32,56c15.44,0,28-11.66,28-26S47.44,4,32,4Z"/><path fill="#6fc6f0" d="M54.69,36a3.8,3.8,0,0,0-3.45,2.15A21.13,21.13,0,0,1,32,49.85a22.28,22.28,0,0,1-3.91-.35,5.92,5.92,0,0,0-5.21,1.68l-9.31,9.31a1,1,0,0,0,1.31.39l9.2-5.05a31.16,31.16,0,0,0,7.92,1c11.48,0,21.42-6.23,26.11-15.24A3.85,3.85,0,0,0,54.69,36Z"/><path fill="#9fddff" d="M9.8,17a3,3,0,0,0,4.45-.19A23.68,23.68,0,0,1,32,9a24.15,24.15,0,0,1,12.23,3.28A3.06,3.06,0,0,0,48,11.85h0a3,3,0,0,0-.58-4.74A30.47,30.47,0,0,0,32,3,29.87,29.87,0,0,0,9.68,12.76,3,3,0,0,0,9.77,17Z"/><path fill="#faefde" d="M35.19,38.4l-7.33-6.82a1.1,1.1,0,0,0-1.33-.21l-9.78,5.35L28.65,23.08l7.53,6.84a1.1,1.1,0,0,0,1.33.2L47,25Z"/><path fill="#8d6c9f" d="M32,2C15.46,2,2,14.49,2,29.85A27,27,0,0,0,12.81,51.26V61a1,1,0,0,0,1.48.88l9.52-5.23A32.24,32.24,0,0,0,32,57.7c16.54,0,30-12.49,30-27.85S48.54,2,32,2Zm0,53.7a30.21,30.21,0,0,1-8.05-1.09,1,1,0,0,0-.75.09l-8.39,4.61V50.76a1,1,0,0,0-.4-.8A25.06,25.06,0,0,1,4,29.85C4,15.6,16.56,4,32,4S60,15.6,60,29.85,47.44,55.7,32,55.7Z"/><path fill="#8d6c9f" d="M50.25 21.46L36.69 29l-7-7.32a1.27 1.27 0 0 0-.73-.31 1 1 0 0 0-.72.31L12.36 38.47A1 1 0 0 0 13.57 40l13.73-7.5 6.85 7.31a1 1 0 0 0 .73.32h0a1 1 0 0 0 .73-.31L51.46 23a1 1 0 0 0-1.21-1.56zM34.88 37.7l-6.66-7.1A1 1 0 0 0 27 30.41l-8.89 4.86L28.94 23.78l6.84 7.12a1 1 0 0 0 1.21.18l8.63-4.77zM21.38 12.4a1 1 0 0 0 .43-.1 24 24 0 0 1 13.64-2.05 1 1 0 1 0 .29-2 25.94 25.94 0 0 0-14.8 2.23 1 1 0 0 0 .44 1.9zM40 11.38a22.9 22.9 0 0 1 2.94 1.3 1 1 0 0 0 .94-1.77A24.8 24.8 0 0 0 40.68 9.5 1 1 0 1 0 40 11.38zM32 47.07a1 1 0 0 0-1 1V50a1 1 0 1 0 2 0V48.07A1 1 0 0 0 32 47.07zM38.19 47.16a1 1 0 1 0-1.92.56l.54 1.85a1 1 0 0 0 1 .72 1 1 0 0 0 .28 0A1 1 0 0 0 38.72 49zM22.43 44.72a1 1 0 0 0-1.38.32L20 46.7a1 1 0 0 0 1.7 1.06l1-1.66A1 1 0 0 0 22.43 44.72zM42.95 45a1 1 0 1 0-1.7 1.06l1 1.66A1 1 0 1 0 44 46.7zM27.05 46.47a1 1 0 0 0-1.24.68L25.28 49A1 1 0 0 0 26 50.25a1 1 0 0 0 .28 0 1 1 0 0 0 1-.72l.54-1.85A1 1 0 0 0 27.05 46.47z"/></svg>