<svg xmlns="http://www.w3.org/2000/svg"  viewBox="0 0 64 64" width="64px" height="64px" baseProfile="basic"><path fill="#989ba3" d="M51,7c3.309,0,6,2.691,6,6v38c0,3.309-2.691,6-6,6H13c-3.309,0-6-2.691-6-6V13c0-3.309,2.691-6,6-6	H51z"/><path fill="#7e8189" d="M7.24,52.66C7.78,51.11,9.26,50,11,50h42c1.74,0,3.22,1.11,3.76,2.66C56.05,55.16,53.74,57,51,57H13	C10.26,57,7.95,55.16,7.24,52.66z"/><path fill="#8d6c9f" d="M52,52c0.555,0,1-0.445,1-1v-2c0-0.555-0.445-1-1-1s-1,0.445-1,1v2C51,51.555,51.445,52,52,52z"/><path fill="#8d6c9f" d="M47,52c0.555,0,1-0.445,1-1v-2c0-0.555-0.445-1-1-1s-1,0.445-1,1v2C46,51.555,46.445,52,47,52z"/><path fill="#8d6c9f" d="M42,52c0.555,0,1-0.445,1-1v-2c0-0.555-0.445-1-1-1s-1,0.445-1,1v2C41,51.555,41.445,52,42,52z"/><path fill="#8d6c9f" d="M37,52c0.555,0,1-0.445,1-1v-2c0-0.555-0.445-1-1-1s-1,0.445-1,1v2C36,51.555,36.445,52,37,52z"/><path fill="#8d6c9f" d="M32,52c0.555,0,1-0.445,1-1v-2c0-0.555-0.445-1-1-1s-1,0.445-1,1v2C31,51.555,31.445,52,32,52z"/><path fill="#8d6c9f" d="M27,52c0.555,0,1-0.445,1-1v-2c0-0.555-0.445-1-1-1s-1,0.445-1,1v2C26,51.555,26.445,52,27,52z"/><path fill="#8d6c9f" d="M22,52c0.555,0,1-0.445,1-1v-2c0-0.555-0.445-1-1-1s-1,0.445-1,1v2C21,51.555,21.445,52,22,52z"/><path fill="#8d6c9f" d="M17,52c0.555,0,1-0.445,1-1v-2c0-0.555-0.445-1-1-1s-1,0.445-1,1v2C16,51.555,16.445,52,17,52z"/><path fill="#8d6c9f" d="M12,52c0.555,0,1-0.445,1-1v-2c0-0.555-0.445-1-1-1s-1,0.445-1,1v2C11,51.555,11.445,52,12,52z"/><path fill="#8d6c9f" d="M51,58c3.859,0,7-3.141,7-7V13c0-3.859-3.141-7-7-7H13c-3.859,0-7,3.141-7,7v38c0,3.859,3.141,7,7,7	H51z M51,56H13c-2.758,0-5-2.242-5-5V13c0-2.758,2.242-5,5-5h38c2.758,0,5,2.242,5,5v38C56,53.758,53.758,56,51,56z"/><path fill="#fff" d="M45,22c-3.309,0-6-2.691-6-6h-5c0,26.528,0.022,15.864,0.022,18.558c0,6.015-7.986,5.607-7.986,0.434	c0-2.699,2.415-4.381,4.762-3.91L31,31.122v-5.063C30.672,26.023,30.34,26,30,26c-4.965,0-9,4.035-9,9s4.035,9,9,9s9-4.035,9-9v-9.8	c2.337,1.522,5.213,2.133,8,1.612v-5.179C46.355,21.863,45.684,22,45,22z"/><path fill="#8d6c9f" d="M30,45c-5.514,0-10-4.486-10-10s4.486-10,10-10c0.377,0,0.745,0.025,1.109,0.065	C31.616,25.121,32,25.549,32,26.059v5.063c0,0.3-0.135,0.584-0.367,0.774c-0.231,0.19-0.536,0.267-0.832,0.206l-0.202-0.041	c-0.876-0.176-1.815,0.056-2.505,0.621c-0.683,0.56-1.059,1.38-1.059,2.31c0,2.046,1.548,2.979,2.986,2.979	c0.795,0,1.524-0.283,2.054-0.795c0.619-0.6,0.946-1.505,0.946-2.617L33.018,34.3c-0.008-0.142-0.008-0.284-0.008-0.42l-0.005-2.588	C33.002,28.68,33,24.054,33,16c0-0.552,0.447-1,1-1h5c0.553,0,1,0.448,1,1c0,2.757,2.243,5,5,5c0.529,0,1.089-0.104,1.664-0.309	c0.307-0.108,0.646-0.063,0.912,0.125S48,21.308,48,21.633v5.179c0,0.481-0.343,0.895-0.816,0.983	c-2.404,0.451-4.942,0.119-7.184-0.907V35C40,40.514,35.514,45,30,45z M30,27c-4.411,0-8,3.589-8,8s3.589,8,8,8s8-3.589,8-8v-9.8	c0-0.367,0.201-0.704,0.523-0.879c0.322-0.174,0.715-0.159,1.022,0.042c1.907,1.243,4.212,1.803,6.454,1.583V22.92	c-3.947,0.618-7.397-2.216-7.929-5.92H35c0,9.912,0.004,15.649,0.01,17.103l0.01,0l-0.001,0.138c0,0.015-0.001,0.029-0.001,0.043	c0.004,0.099,0.004,0.191,0.004,0.273c0,3.719-2.592,5.413-5,5.413c-2.417,0-4.986-1.745-4.986-4.979c0-1.54,0.636-2.91,1.791-3.856	c0.903-0.741,2.021-1.134,3.17-1.134c0.002,0,0.003,0,0.004,0V27z"/><path fill="#8d6c9f" d="M30,23c-0.553,0-1-0.448-1-1V12c0-0.552,0.447-1,1-1h5c0.553,0,1,0.448,1,1s-0.447,1-1,1h-4v9	C31,22.552,30.553,23,30,23z"/><path fill="#8d6c9f" d="M17.92,36.962c-0.369,0-0.724-0.205-0.898-0.558C16.344,35.027,16,33.545,16,32	c0-3.281,1.615-6.357,4.321-8.229c0.454-0.315,1.076-0.201,1.392,0.253c0.314,0.454,0.201,1.077-0.253,1.391	C19.293,26.914,18,29.376,18,32c0,1.236,0.274,2.42,0.816,3.52c0.243,0.496,0.04,1.095-0.456,1.339	C18.219,36.929,18.068,36.962,17.92,36.962z"/><path fill="#8d6c9f" d="M24.112,24.199c-0.462,0-0.876-0.321-0.977-0.791c-0.116-0.54,0.228-1.072,0.768-1.188	C24.588,22.074,25.293,22,26,22c0.553,0,1,0.448,1,1s-0.447,1-1,1c-0.566,0-1.131,0.06-1.677,0.177	C24.252,24.192,24.182,24.199,24.112,24.199z"/></svg>